<svg width="20" height="17" viewBox="0 0 20 17" fill="none" xmlns="http://www.w3.org/2000/svg">
<path d="M19.8097 2.22724C19.8677 2.14647 19.7821 2.04218 19.6894 2.07811C19.0307 2.33344 18.3422 2.50571 17.64 2.5906C18.4219 2.12348 19.0253 1.4124 19.3599 0.570533C19.3939 0.484774 19.3003 0.408187 19.2195 0.452801C18.4928 0.854139 17.709 1.14313 16.8949 1.30957C16.8608 1.31654 16.8257 1.30494 16.8018 1.27969C16.1908 0.635016 15.3866 0.205781 14.5098 0.0574517C13.6147 -0.0939932 12.6945 0.0559587 11.8938 0.48379C11.093 0.911621 10.4569 1.59313 10.0852 2.42144C9.73183 3.209 9.63647 4.08691 9.81078 4.93003C9.8243 4.99545 9.7731 5.05721 9.70642 5.05307C8.12237 4.95469 6.57466 4.53336 5.15866 3.81446C3.74624 3.09739 2.49551 2.09983 1.48264 0.883296C1.43769 0.829305 1.35249 0.836293 1.31974 0.898445C1.00457 1.49651 0.839552 2.16311 0.84 2.8406C0.838721 3.51498 1.00422 4.17922 1.32176 4.77416C1.63929 5.36911 2.09902 5.87631 2.66 6.2506C2.06508 6.23441 1.48175 6.08734 0.951249 5.82067C0.882881 5.78631 0.800874 5.83524 0.80443 5.91167C0.845799 6.80091 1.17225 7.69364 1.73732 8.37857C2.33864 9.10744 3.17326 9.60624 4.1 9.7906C3.74326 9.89917 3.37288 9.95641 3 9.9606C2.79706 9.95823 2.59451 9.94325 2.39354 9.91578C2.31902 9.90559 2.25817 9.97637 2.28425 10.0469C2.56067 10.7944 3.049 11.4467 3.69108 11.9228C4.37753 12.4318 5.20558 12.7142 6.06 12.7306C4.6172 13.8659 2.83588 14.4855 1 14.4906C0.811357 14.4912 0.622797 14.4851 0.434682 14.4723C0.328674 14.4651 0.279919 14.6063 0.371294 14.6605C2.16006 15.7221 4.20459 16.2831 6.29 16.2806C7.82969 16.2966 9.35714 16.0056 10.7831 15.4247C12.2091 14.8437 13.505 13.9845 14.5952 12.8971C15.6854 11.8097 16.548 10.516 17.1326 9.09151C17.7172 7.66702 18.012 6.14033 18 4.6006V4.12077C18 4.0892 18.0149 4.05951 18.0401 4.04048C18.7184 3.52834 19.3149 2.91691 19.8097 2.22724Z" fill="white"/>
</svg>
