<svg width="20" height="20" viewBox="0 0 20 20" fill="none" xmlns="http://www.w3.org/2000/svg">
<path d="M14 4.99998C14 4.4477 14.4477 3.99998 15 3.99998C15.5523 3.99998 16 4.4477 16 4.99998C16 5.55227 15.5523 5.99998 15 5.99998C14.4477 5.99998 14 5.55227 14 4.99998Z" fill="white"/>
<path fill-rule="evenodd" clip-rule="evenodd" d="M10 5.24998C7.37665 5.24998 5.25 7.37663 5.25 9.99998C5.25 12.6233 7.37665 14.75 10 14.75C12.6234 14.75 14.75 12.6233 14.75 9.99998C14.75 7.37663 12.6234 5.24998 10 5.24998ZM6.75 9.99998C6.75 8.20506 8.20507 6.74998 10 6.74998C11.7949 6.74998 13.25 8.20506 13.25 9.99998C13.25 11.7949 11.7949 13.25 10 13.25C8.20507 13.25 6.75 11.7949 6.75 9.99998Z" fill="white"/>
<path fill-rule="evenodd" clip-rule="evenodd" d="M15.2583 0.833C11.7917 0.445559 8.20834 0.445559 4.74177 0.833C2.72971 1.05788 1.10538 2.64289 0.868826 4.66542C0.454288 8.20971 0.454288 11.7903 0.868826 15.3346C1.10538 17.3571 2.72971 18.9421 4.74177 19.167C8.20835 19.5544 11.7917 19.5544 15.2583 19.167C17.2703 18.9421 18.8946 17.3571 19.1312 15.3346C19.5457 11.7903 19.5457 8.20971 19.1312 4.66542C18.8946 2.64289 17.2703 1.05788 15.2583 0.833ZM4.90838 2.32372C8.26423 1.94865 11.7358 1.94865 15.0916 2.32372C16.4218 2.47238 17.4872 3.52199 17.6414 4.83967C18.0424 8.26819 18.0424 11.7318 17.6414 15.1603C17.4872 16.478 16.4218 17.5276 15.0916 17.6762C11.7358 18.0513 8.26423 18.0513 4.90838 17.6762C3.57827 17.5276 2.51278 16.478 2.35867 15.1603C1.95767 11.7318 1.95767 8.26819 2.35867 4.83967C2.51278 3.52199 3.57827 2.47238 4.90838 2.32372Z" fill="white"/>
</svg>
