<svg width="32" height="32" viewBox="0 0 32 32" fill="none" xmlns="http://www.w3.org/2000/svg">
<path d="M20 11C20 10.4477 20.4477 9.99998 21 9.99998C21.5523 9.99998 22 10.4477 22 11C22 11.5523 21.5523 12 21 12C20.4477 12 20 11.5523 20 11Z" fill="white"/>
<path fill-rule="evenodd" clip-rule="evenodd" d="M16 11.25C13.3766 11.25 11.25 13.3766 11.25 16C11.25 18.6233 13.3766 20.75 16 20.75C18.6234 20.75 20.75 18.6233 20.75 16C20.75 13.3766 18.6234 11.25 16 11.25ZM12.75 16C12.75 14.2051 14.2051 12.75 16 12.75C17.7949 12.75 19.25 14.2051 19.25 16C19.25 17.7949 17.7949 19.25 16 19.25C14.2051 19.25 12.75 17.7949 12.75 16Z" fill="white"/>
<path fill-rule="evenodd" clip-rule="evenodd" d="M21.2583 6.833C17.7917 6.44556 14.2083 6.44556 10.7418 6.833C8.72971 7.05788 7.10538 8.64289 6.86883 10.6654C6.45429 14.2097 6.45429 17.7903 6.86883 21.3346C7.10538 23.3571 8.72971 24.9421 10.7418 25.167C14.2083 25.5544 17.7917 25.5544 21.2583 25.167C23.2703 24.9421 24.8946 23.3571 25.1312 21.3346C25.5457 17.7903 25.5457 14.2097 25.1312 10.6654C24.8946 8.64289 23.2703 7.05788 21.2583 6.833ZM10.9084 8.32372C14.2642 7.94865 17.7358 7.94865 21.0916 8.32372C22.4218 8.47238 23.4872 9.52199 23.6414 10.8397C24.0424 14.2682 24.0424 17.7318 23.6414 21.1603C23.4872 22.478 22.4218 23.5276 21.0916 23.6762C17.7358 24.0513 14.2642 24.0513 10.9084 23.6762C9.57827 23.5276 8.51278 22.478 8.35867 21.1603C7.95767 17.7318 7.95767 14.2682 8.35867 10.8397C8.51278 9.52199 9.57827 8.47238 10.9084 8.32372Z" fill="white"/>
<circle cx="16" cy="16" r="15.5" stroke="white"/>
</svg>
